<svg xmlns="http://www.w3.org/2000/svg" xmlns:xlink="http://www.w3.org/1999/xlink" width="500" zoomAndPan="magnify" viewBox="0 0 375 225" height="300" preserveAspectRatio="xMidYMid meet" version="1.0"><defs><g/><clipPath id="2b87cd3e07"><path d="M 229.703125 169.402344 L 260.359375 169.402344 L 260.359375 199.96875 L 229.703125 199.96875 Z M 229.703125 169.402344 " clip-rule="nonzero"/></clipPath><clipPath id="5cdc125609"><path d="M 229.667969 195 L 239 195 L 239 201.644531 L 229.667969 201.644531 Z M 229.667969 195 " clip-rule="nonzero"/></clipPath><clipPath id="07c4eff1e8"><path d="M 157.695312 54.703125 L 188.355469 54.703125 L 188.355469 85.269531 L 157.695312 85.269531 Z M 157.695312 54.703125 " clip-rule="nonzero"/></clipPath><clipPath id="c0feef66bf"><path d="M 157.660156 81 L 167 81 L 167 86.945312 L 157.660156 86.945312 Z M 157.660156 81 " clip-rule="nonzero"/></clipPath></defs><g fill="#2b2b2b" fill-opacity="1"><g transform="translate(46.616273, 166.183876)"><g><path d="M 39.625 0 L 2.265625 0 C 2.265625 -4.539062 2.9375 -9.289062 4.28125 -14.25 C 5.632812 -19.21875 7.382812 -24.140625 9.53125 -29.015625 C 11.675781 -33.898438 13.945312 -38.488281 16.34375 -42.78125 C 18.738281 -47.070312 20.988281 -50.816406 23.09375 -54.015625 C 24.519531 -56.203125 26.070312 -58.390625 27.75 -60.578125 C 29.4375 -62.765625 31.082031 -64.867188 32.6875 -66.890625 C 31.082031 -72.191406 29.523438 -76.1875 28.015625 -78.875 C 26.503906 -81.570312 24.316406 -82.921875 21.453125 -82.921875 L 21.453125 -86.203125 C 27.847656 -86.203125 33.460938 -85.359375 38.296875 -83.671875 C 43.140625 -81.992188 47.304688 -79.765625 50.796875 -76.984375 C 54.285156 -74.203125 57.164062 -71.085938 59.4375 -67.640625 C 61.707031 -64.191406 63.429688 -60.703125 64.609375 -57.171875 C 67.304688 -49.085938 69.535156 -41.382812 71.296875 -34.0625 C 73.066406 -26.75 75.210938 -20.148438 77.734375 -14.265625 C 79.335938 -10.640625 81.503906 -8.640625 84.234375 -8.265625 C 86.972656 -7.890625 89.351562 -8.753906 91.375 -10.859375 L 93.515625 -8.578125 C 90.992188 -5.046875 87.898438 -2.582031 84.234375 -1.1875 C 80.578125 0.195312 77.148438 0.890625 73.953125 0.890625 C 69.328125 0.890625 65.140625 -0.242188 61.390625 -2.515625 C 57.648438 -4.796875 54.472656 -7.765625 51.859375 -11.421875 C 49.253906 -15.078125 47.238281 -18.96875 45.8125 -23.09375 L 27 -23.09375 C 28.4375 -18.550781 30.269531 -14.257812 32.5 -10.21875 C 34.726562 -6.1875 37.101562 -2.78125 39.625 0 Z M 44.796875 -26.125 C 42.953125 -31.925781 41.125 -38.109375 39.3125 -44.671875 C 37.5 -51.234375 35.671875 -57.460938 33.828125 -63.359375 C 33.066406 -62.265625 32.304688 -61.210938 31.546875 -60.203125 C 30.796875 -59.191406 30.039062 -58.097656 29.28125 -56.921875 C 26.414062 -52.628906 24.859375 -47.769531 24.609375 -42.34375 C 24.359375 -36.914062 24.90625 -31.507812 26.25 -26.125 Z M 44.796875 -26.125 "/></g></g></g><g fill="#2b2b2b" fill-opacity="1"><g transform="translate(131.539834, 166.183876)"><g><path d="M 32.3125 -41.265625 L 32.3125 -44.171875 C 36.6875 -44.171875 40.238281 -45.160156 42.96875 -47.140625 C 45.707031 -49.117188 47.078125 -51.914062 47.078125 -55.53125 C 47.078125 -59.144531 45.097656 -63.351562 41.140625 -68.15625 C 38.273438 -71.851562 34.90625 -74.582031 31.03125 -76.34375 C 27.164062 -78.113281 23.59375 -79 20.3125 -79 C 17.457031 -79 15.394531 -78.515625 14.125 -77.546875 C 12.863281 -76.578125 12.128906 -75.460938 11.921875 -74.203125 C 11.710938 -72.941406 11.816406 -71.765625 12.234375 -70.671875 C 12.828125 -69.160156 13.835938 -67.921875 15.265625 -66.953125 C 16.703125 -65.984375 18.28125 -65.015625 20 -64.046875 C 21.726562 -63.078125 23.390625 -61.960938 24.984375 -60.703125 C 26.585938 -59.441406 27.914062 -57.78125 28.96875 -55.71875 C 30.019531 -53.65625 30.546875 -50.984375 30.546875 -47.703125 L 30.546875 0 L 2.90625 0 L 2.90625 -59.0625 C 2.90625 -64.53125 3.847656 -69.03125 5.734375 -72.5625 C 7.628906 -76.101562 10.09375 -78.878906 13.125 -80.890625 C 16.15625 -82.910156 19.394531 -84.34375 22.84375 -85.1875 C 26.289062 -86.03125 29.570312 -86.453125 32.6875 -86.453125 C 40.59375 -86.453125 47.613281 -85.585938 53.75 -83.859375 C 59.894531 -82.140625 64.753906 -79.59375 68.328125 -76.21875 C 71.910156 -72.851562 73.703125 -68.691406 73.703125 -63.734375 C 73.703125 -58.515625 71.703125 -54.222656 67.703125 -50.859375 C 63.710938 -47.492188 58.347656 -45.054688 51.609375 -43.546875 C 54.640625 -42.617188 57.628906 -40.765625 60.578125 -37.984375 C 62.765625 -35.796875 64.425781 -33.546875 65.5625 -31.234375 C 66.695312 -28.921875 67.554688 -26.691406 68.140625 -24.546875 C 68.734375 -22.398438 69.320312 -20.441406 69.90625 -18.671875 C 70.5 -16.910156 71.34375 -15.484375 72.4375 -14.390625 C 74.625 -12.203125 76.789062 -11.335938 78.9375 -11.796875 C 81.082031 -12.265625 83.125 -13.503906 85.0625 -15.515625 L 87.078125 -13.5 C 84.972656 -10.726562 82.320312 -8.179688 79.125 -5.859375 C 75.925781 -3.546875 72.476562 -1.820312 68.78125 -0.6875 C 65.082031 0.445312 61.335938 0.65625 57.546875 -0.0625 C 53.765625 -0.78125 50.234375 -2.78125 46.953125 -6.0625 C 44.765625 -8.25 43.394531 -10.644531 42.84375 -13.25 C 42.300781 -15.851562 42.175781 -18.457031 42.46875 -21.0625 C 42.757812 -23.675781 43.09375 -26.203125 43.46875 -28.640625 C 43.851562 -31.085938 43.894531 -33.253906 43.59375 -35.140625 C 43.300781 -37.035156 42.332031 -38.53125 40.6875 -39.625 C 39.050781 -40.71875 36.257812 -41.265625 32.3125 -41.265625 Z M 32.3125 -41.265625 "/></g></g></g><g fill="#2b2b2b" fill-opacity="1"><g transform="translate(207.504145, 166.183876)"><g><path d="M 10.59375 -51.234375 C 8.238281 -53.171875 6.257812 -55.316406 4.65625 -57.671875 C 3.0625 -60.023438 2.265625 -62.800781 2.265625 -66 C 2.265625 -67.6875 2.554688 -69.664062 3.140625 -71.9375 C 3.734375 -74.207031 4.847656 -76.4375 6.484375 -78.625 C 8.128906 -80.8125 10.425781 -82.640625 13.375 -84.109375 C 16.320312 -85.585938 20.148438 -86.328125 24.859375 -86.328125 C 29.566406 -86.328125 33.878906 -85.648438 37.796875 -84.296875 C 41.710938 -82.953125 45.3125 -81.394531 48.59375 -79.625 C 51.875 -77.863281 54.835938 -76.3125 57.484375 -74.96875 C 60.128906 -73.625 62.546875 -72.953125 64.734375 -72.953125 C 67.679688 -72.953125 70.101562 -73.582031 72 -74.84375 C 73.894531 -76.101562 75.300781 -77.675781 76.21875 -79.5625 C 77.144531 -81.457031 77.609375 -83.414062 77.609375 -85.4375 L 80.765625 -85.4375 C 80.765625 -79.632812 79.796875 -74.710938 77.859375 -70.671875 C 75.929688 -66.628906 73.429688 -63.347656 70.359375 -60.828125 C 67.285156 -58.304688 64.003906 -56.476562 60.515625 -55.34375 C 57.023438 -54.207031 53.722656 -53.640625 50.609375 -53.640625 C 47.078125 -53.640625 43.796875 -53.992188 40.765625 -54.703125 C 37.734375 -55.421875 34.914062 -56.285156 32.3125 -57.296875 C 33.40625 -54.347656 34.875 -52.203125 36.71875 -50.859375 C 38.570312 -49.515625 40.570312 -48.585938 42.71875 -48.078125 C 44.863281 -47.578125 46.90625 -47.09375 48.84375 -46.625 C 50.78125 -46.164062 52.359375 -45.347656 53.578125 -44.171875 C 54.796875 -42.992188 55.40625 -41.015625 55.40625 -38.234375 L 55.40625 0 L 27.765625 0 L 27.765625 -59.1875 C 25.328125 -60.28125 23.140625 -61.25 21.203125 -62.09375 C 19.265625 -62.9375 17.582031 -63.359375 16.15625 -63.359375 C 14.132812 -63.359375 12.703125 -62.679688 11.859375 -61.328125 C 11.015625 -59.984375 10.695312 -58.53125 10.90625 -56.96875 C 11.125 -55.414062 11.78125 -54.222656 12.875 -53.390625 Z M 10.59375 -51.234375 "/></g></g></g><g fill="#2b2b2b" fill-opacity="1"><g transform="translate(290.534894, 166.183876)"><g><path d="M 54.640625 -46.0625 L 52.5 -42.78125 L 40.890625 -42.78125 C 34.328125 -42.78125 30.117188 -40.570312 28.265625 -36.15625 C 26.421875 -31.738281 27.429688 -25.785156 31.296875 -18.296875 C 33.816406 -13.421875 36.863281 -9.929688 40.4375 -7.828125 C 44.019531 -5.722656 47.765625 -4.710938 51.671875 -4.796875 C 55.585938 -4.878906 59.394531 -5.84375 63.09375 -7.6875 C 66.800781 -9.539062 70.039062 -11.898438 72.8125 -14.765625 L 74.203125 -13.25 C 71.679688 -10.476562 68.882812 -8.019531 65.8125 -5.875 C 62.738281 -3.726562 59.160156 -2.0625 55.078125 -0.875 C 51.003906 0.300781 46.109375 0.890625 40.390625 0.890625 C 32.472656 0.890625 25.675781 -0.117188 20 -2.140625 C 14.320312 -4.160156 9.945312 -6.914062 6.875 -10.40625 C 3.800781 -13.90625 2.265625 -17.96875 2.265625 -22.59375 C 2.265625 -26.71875 3.378906 -30.1875 5.609375 -33 C 7.835938 -35.820312 10.890625 -38.132812 14.765625 -39.9375 C 18.640625 -41.75 23.054688 -43.078125 28.015625 -43.921875 C 23.472656 -45.097656 19.5625 -46.945312 16.28125 -49.46875 C 13 -51.988281 10.492188 -54.847656 8.765625 -58.046875 C 7.046875 -61.242188 6.125 -64.503906 6 -67.828125 C 5.875 -71.148438 6.691406 -74.203125 8.453125 -76.984375 C 10.222656 -79.765625 12.976562 -82.015625 16.71875 -83.734375 C 20.46875 -85.460938 25.285156 -86.328125 31.171875 -86.328125 C 34.285156 -86.328125 37.1875 -85.84375 39.875 -84.875 C 42.570312 -83.90625 45.035156 -82.769531 47.265625 -81.46875 C 49.492188 -80.164062 51.550781 -79.03125 53.4375 -78.0625 C 55.332031 -77.09375 57.082031 -76.609375 58.6875 -76.609375 C 61.800781 -76.609375 63.835938 -77.425781 64.796875 -79.0625 C 65.765625 -80.707031 66.25 -82.914062 66.25 -85.6875 L 69.03125 -85.6875 C 69.539062 -82.238281 69.601562 -78.679688 69.21875 -75.015625 C 68.84375 -71.359375 67.894531 -67.972656 66.375 -64.859375 C 64.863281 -61.753906 62.632812 -59.234375 59.6875 -57.296875 C 56.75 -55.359375 52.921875 -54.390625 48.203125 -54.390625 C 45.097656 -54.390625 42.382812 -55.0625 40.0625 -56.40625 C 37.75 -57.757812 35.707031 -59.460938 33.9375 -61.515625 C 32.175781 -63.578125 30.554688 -65.679688 29.078125 -67.828125 C 27.609375 -69.972656 26.140625 -71.84375 24.671875 -73.4375 C 23.203125 -75.039062 21.644531 -76.09375 20 -76.59375 C 18.363281 -77.101562 16.453125 -76.6875 14.265625 -75.34375 C 12.578125 -74.332031 11.414062 -72.691406 10.78125 -70.421875 C 10.15625 -68.148438 10.195312 -65.625 10.90625 -62.84375 C 11.625 -60.070312 13.054688 -57.398438 15.203125 -54.828125 C 17.347656 -52.265625 20.3125 -50.160156 24.09375 -48.515625 C 27.882812 -46.878906 32.597656 -46.0625 38.234375 -46.0625 Z M 54.640625 -46.0625 "/></g></g></g><g clip-path="url(#2b87cd3e07)"><path fill="#2b2b2b" d="M 259.667969 183.8125 L 249.066406 181.367188 C 248.734375 181.292969 248.472656 181.03125 248.398438 180.699219 L 245.949219 170.097656 C 245.738281 169.171875 244.421875 169.171875 244.207031 170.097656 L 241.761719 180.699219 C 241.683594 181.03125 241.421875 181.292969 241.089844 181.367188 L 230.492188 183.8125 C 229.566406 184.027344 229.566406 185.34375 230.492188 185.558594 L 241.089844 188.003906 C 241.421875 188.082031 241.683594 188.339844 241.761719 188.671875 L 244.207031 199.273438 C 244.421875 200.199219 245.738281 200.199219 245.949219 199.273438 L 248.398438 188.671875 C 248.472656 188.339844 248.734375 188.082031 249.066406 188.003906 L 259.667969 185.558594 C 260.589844 185.34375 260.589844 184.027344 259.667969 183.8125 " fill-opacity="1" fill-rule="nonzero"/></g><g clip-path="url(#5cdc125609)"><path fill="#2b2b2b" d="M 237.800781 206.78125 L 229.664062 204.90625 C 229.40625 204.84375 229.207031 204.644531 229.148438 204.390625 L 227.269531 196.25 C 227.105469 195.542969 226.097656 195.542969 225.933594 196.25 L 224.054688 204.390625 C 223.996094 204.644531 223.796875 204.84375 223.539062 204.90625 L 215.402344 206.78125 C 214.691406 206.945312 214.691406 207.957031 215.402344 208.121094 L 223.539062 210 C 223.796875 210.058594 223.996094 210.257812 224.054688 210.515625 L 225.933594 218.652344 C 226.097656 219.359375 227.105469 219.359375 227.269531 218.652344 L 229.148438 210.515625 C 229.207031 210.257812 229.40625 210.058594 229.664062 210 L 237.800781 208.121094 C 238.511719 207.957031 238.511719 206.945312 237.800781 206.78125 " fill-opacity="1" fill-rule="nonzero"/></g><g clip-path="url(#07c4eff1e8)"><path fill="#2b2b2b" d="M 187.660156 69.113281 L 177.0625 66.667969 C 176.726562 66.589844 176.46875 66.332031 176.390625 65.996094 L 173.945312 55.398438 C 173.730469 54.472656 172.414062 54.472656 172.203125 55.398438 L 169.753906 65.996094 C 169.675781 66.332031 169.417969 66.589844 169.085938 66.667969 L 158.484375 69.113281 C 157.558594 69.328125 157.558594 70.644531 158.484375 70.855469 L 169.085938 73.304688 C 169.417969 73.378906 169.675781 73.640625 169.753906 73.972656 L 172.203125 84.574219 C 172.414062 85.496094 173.730469 85.496094 173.945312 84.574219 L 176.390625 73.972656 C 176.46875 73.640625 176.726562 73.378906 177.0625 73.304688 L 187.660156 70.855469 C 188.585938 70.644531 188.585938 69.328125 187.660156 69.113281 " fill-opacity="1" fill-rule="nonzero"/></g><g clip-path="url(#c0feef66bf)"><path fill="#2b2b2b" d="M 165.792969 92.082031 L 157.65625 90.203125 C 157.402344 90.144531 157.203125 89.945312 157.140625 89.691406 L 155.265625 81.550781 C 155.101562 80.84375 154.089844 80.84375 153.925781 81.550781 L 152.046875 89.691406 C 151.988281 89.945312 151.789062 90.144531 151.53125 90.203125 L 143.394531 92.082031 C 142.683594 92.246094 142.683594 93.257812 143.394531 93.421875 L 151.53125 95.296875 C 151.789062 95.359375 151.988281 95.558594 152.046875 95.8125 L 153.925781 103.953125 C 154.089844 104.660156 155.101562 104.660156 155.265625 103.953125 L 157.140625 95.8125 C 157.203125 95.558594 157.402344 95.359375 157.65625 95.296875 L 165.792969 93.421875 C 166.503906 93.257812 166.503906 92.246094 165.792969 92.082031 " fill-opacity="1" fill-rule="nonzero"/></g><g fill="#2b2b2b" fill-opacity="1"><g transform="translate(33.000191, 119.313274)"><g><path d="M -20.65625 -6.484375 L -20.34375 -8.703125 L 0.8125 -5.671875 L 0.5 -3.453125 Z M -20.65625 -6.484375 "/></g></g></g><g fill="#2b2b2b" fill-opacity="1"><g transform="translate(35.198822, 103.049805)"><g><path d="M -6.859375 -29.421875 L 11.28125 -18.125 L 10.296875 -16.546875 L -11.6875 -14.046875 L 3.03125 -4.875 L 1.84375 -2.953125 L -16.296875 -14.25 L -15.3125 -15.828125 L 6.671875 -18.34375 L -8.046875 -27.515625 Z M -6.859375 -29.421875 "/></g></g></g><g fill="#2b2b2b" fill-opacity="1"><g transform="translate(53.206305, 77.918043)"><g><path d="M 8.109375 -29.03125 L 10.28125 -5.75 L 8.34375 -4.671875 L -10.359375 -18.703125 L -8.234375 -19.890625 L 7.984375 -7.6875 L 6.109375 -27.90625 Z M 8.109375 -29.03125 "/></g></g></g><g fill="#2b2b2b" fill-opacity="1"><g transform="translate(79.038761, 66.383158)"><g><path d="M 0.875 -21.640625 L 3.109375 -21.90625 L 5.6875 -0.6875 L 3.453125 -0.421875 Z M 0.875 -21.640625 "/></g></g></g><g fill="#2b2b2b" fill-opacity="1"><g transform="translate(95.687513, 64.964789)"><g><path d="M 12.015625 -17.0625 L 4.734375 -18.84375 L 5.1875 -20.734375 L 21.96875 -16.640625 L 21.515625 -14.75 L 14.21875 -16.53125 L 9.609375 2.34375 L 7.40625 1.8125 Z M 12.015625 -17.0625 "/></g></g></g></svg>